<svg width="8" height="8" viewBox="0 0 8 8" fill="none" xmlns="http://www.w3.org/2000/svg">
<path fill-rule="evenodd" clip-rule="evenodd" d="M4 3.46511L6.8595 0.605105C6.9325 0.532105 7.029 0.495605 7.125 0.495605C7.327 0.495605 7.5 0.657605 7.5 0.870105C7.5 0.966605 7.4635 1.06261 7.3905 1.13611L4.5305 3.99561L7.39 6.8551C7.4635 6.9286 7.5 7.0246 7.5 7.1206C7.5 7.3341 7.3255 7.4956 7.125 7.4956C7.029 7.4956 6.9325 7.45911 6.8595 7.38611L4 4.52661L1.1405 7.38611C1.0675 7.45911 0.971 7.4956 0.875 7.4956C0.6745 7.4956 0.5 7.3341 0.5 7.1206C0.5 7.0246 0.5365 6.9286 0.61 6.8551L3.4695 3.99561L0.6095 1.13611C0.5365 1.06261 0.5 0.966605 0.5 0.870105C0.5 0.657605 0.673 0.495605 0.875 0.495605C0.971 0.495605 1.0675 0.532105 1.1405 0.605105L4 3.46511Z" fill="#EF3A3A"/>
</svg>
