<svg width="12" height="12" viewBox="0 0 12 12" fill="none" xmlns="http://www.w3.org/2000/svg">
  <path d="M11.5 6C11.5 6.521 11.423 7.0225 11.2875 7.5H10.237C10.4045 7.03 10.5 6.5265 10.5 6C10.5 3.519 8.4815 1.5 6 1.5C5.147 1.5 4.352 1.742 3.6725 2.157L4.6015 3.5H1.1045L2.1805 0L3.105 1.3365C3.947 0.812 4.9345 0.5 6 0.5C9.037 0.5 11.5 2.9625 11.5 6ZM8.323 9.846C7.6445 10.259 6.851 10.5 6 10.5C3.519 10.5 1.5 8.481 1.5 6C1.5 5.4735 1.5955 4.97 1.7625 4.5H0.7125C0.577 4.9775 0.5 5.479 0.5 6C0.5 9.0375 2.9625 11.5 6 11.5C7.0635 11.5 8.0495 11.1895 8.89 10.6665L9.8165 12L10.8925 8.5055H7.3955L8.323 9.846Z" fill="white"/>
</svg>
