<svg width="24" height="24" viewBox="0 0 24 24" fill="none" xmlns="http://www.w3.org/2000/svg">
<path d="M24 14V10H20.77C20.541 8.997 20.146 8.06 19.614 7.215L21.9 4.929L19.07 2.1L16.784 4.386C15.939 3.854 15.003 3.458 14 3.23V0H10V3.23C8.997 3.458 8.06 3.855 7.215 4.387L4.929 2.101L2.1 4.929L4.387 7.216C3.854 8.061 3.459 8.997 3.23 10H0V14H3.23C3.459 15.003 3.854 15.939 4.386 16.784L2.1 19.071L4.929 21.9L7.215 19.614C8.06 20.145 8.997 20.542 10 20.77V24H14V20.77C15.003 20.542 15.939 20.146 16.784 19.614L19.07 21.9L21.898 19.071L19.613 16.785C20.145 15.94 20.541 15.003 20.769 14H24ZM12 16C9.791 16 8 14.209 8 12C8 9.791 9.791 8 12 8C14.209 8 16 9.791 16 12C16 14.209 14.209 16 12 16Z" fill="white"/>
</svg>
